<svg xmlns="http://www.w3.org/2000/svg" viewBox="0 0 31.59 29.28">
  <g id="Layer_2" data-name="Layer 2">
    <g id="Layer_1-2" data-name="Layer 1">
      <g>
        <path class="cls-1" d="M30.69,14.27a.91.91,0,0,0-.91.91v8.23a4.06,4.06,0,0,1-4.06,4.06H5.87a4.07,4.07,0,0,1-4.06-4.06V15a.9.9,0,0,0-.9-.9A.9.9,0,0,0,0,15v8.37a5.87,5.87,0,0,0,5.87,5.87H25.72a5.88,5.88,0,0,0,5.87-5.87V15.18A.9.9,0,0,0,30.69,14.27Z"/>
        <path class="cls-1" d="M15.16,22.09a.93.93,0,0,0,.64.27.88.88,0,0,0,.63-.27l5.75-5.75a.91.91,0,1,0-1.28-1.28l-4.2,4.21V.91a.91.91,0,1,0-1.81,0V19.27l-4.21-4.21A.91.91,0,1,0,9.4,16.34Z"/>
      </g>
    </g>
  </g>
</svg>
