<svg xmlns="http://www.w3.org/2000/svg" viewBox="0 0 34.32 34.32">
  <g id="Layer_2" data-name="Layer 2">
    <g id="Layer_1-2" data-name="Layer 1">
      <g>
        <path class="cls-1" d="M33.62,0H.7A.7.7,0,0,0,0,.7V33.62a.7.7,0,0,0,.7.7h28a.7.7,0,0,0,0-1.4H1.4V1.4H32.92V33.62a.7.7,0,1,0,1.4,0V.7A.7.7,0,0,0,33.62,0Z"/>
        <path class="cls-1" d="M7.66,7.27a2.68,2.68,0,1,0,2.68,2.67A2.68,2.68,0,0,0,7.66,7.27Zm0,4A1.28,1.28,0,1,1,8.94,9.94,1.28,1.28,0,0,1,7.66,11.22Z"/>
        <path class="cls-1" d="M28.73,9.24H12.43a.7.7,0,0,0,0,1.4h16.3a.7.7,0,1,0,0-1.4Z"/>
        <path class="cls-1" d="M7.66,14.48a.7.7,0,1,0,0,1.4,1.28,1.28,0,1,1-1.28,1.28.7.7,0,0,0-1.4,0,2.68,2.68,0,1,0,2.68-2.68Z"/>
        <path class="cls-1" d="M28.73,16.46H12.43a.7.7,0,1,0,0,1.4h16.3a.7.7,0,0,0,0-1.4Z"/>
        <path class="cls-1" d="M7.66,21.7a2.68,2.68,0,1,0,2.68,2.68A2.68,2.68,0,0,0,7.66,21.7Zm0,4a1.29,1.29,0,1,1,1.28-1.28A1.28,1.28,0,0,1,7.66,25.66Z"/>
        <path class="cls-1" d="M28.73,23.68H12.43a.7.7,0,1,0,0,1.39h16.3a.7.7,0,1,0,0-1.39Z"/>
      </g>
    </g>
  </g>
</svg>
