<svg xmlns="http://www.w3.org/2000/svg" viewBox="0 0 36.82 37.05">
  <g id="Layer_2" data-name="Layer 2">
    <g id="Layer_1-2" data-name="Layer 1">
      <path class="cls-1" d="M36.61,16.91,31.1,11.79V3.41H24.76V5.89L18.41,0,.2,16.91a.63.63,0,0,0,0,.89.64.64,0,0,0,.9,0l2.1-2V37.05H33.64V15.88l2.11,2a.65.65,0,0,0,.43.17.64.64,0,0,0,.47-.21A.62.62,0,0,0,36.61,16.91ZM26,4.68h3.8v5.93L26,7.07ZM14.6,35.78V22.41a.6.6,0,0,1,.59-.6h6.43a.6.6,0,0,1,.6.6V35.78Zm17.77,0H23.49V22.41a1.87,1.87,0,0,0-1.87-1.87H15.19a1.87,1.87,0,0,0-1.86,1.87V35.78H4.44V14.7l14-13,9.06,8.42,3.63,3.37h0l1.27,1.18Z"/>
    </g>
  </g>
</svg>
